<svg width="50" height="50" viewBox="0 0 50 50" fill="none" xmlns="http://www.w3.org/2000/svg">
<g clip-path="url(#clip0_7_130)">
<path d="M25.7952 29.8958C25.8501 30.1199 26.0042 30.3158 26.2237 30.4407C26.4432 30.5656 26.7103 30.6094 26.9667 30.5625H26.9595L42.8119 27.5458C42.94 27.522 43.0612 27.4755 43.1681 27.4092C43.2749 27.3429 43.3652 27.2583 43.4333 27.1604L43.4357 27.1562C43.5073 27.0572 43.5556 26.9467 43.5776 26.8311C43.5997 26.7156 43.5952 26.5973 43.5643 26.4833L43.5667 26.4896C39.25 13.6375 30.5524 3.98956 19.6881 -0.010437H19.5952C19.447 -0.0104682 19.3007 0.0186645 19.1672 0.0748043C19.0336 0.130944 18.9162 0.212653 18.8236 0.313883C18.731 0.415112 18.6656 0.533269 18.6322 0.659606C18.5989 0.785942 18.5984 0.917223 18.6309 1.04373L18.6286 1.03748L25.7952 29.8958ZM10.4643 33.6875L22.9857 31.3166C23.2402 31.2687 23.4632 31.1356 23.6071 30.9458L23.6095 30.9416C23.6837 30.848 23.7336 30.7413 23.7558 30.6291C23.778 30.5168 23.772 30.4017 23.7381 30.2916L23.7405 30.2979L19.7524 14.2291C19.7143 14.0596 19.6171 13.9045 19.4744 13.7852C19.3316 13.6658 19.1501 13.588 18.9548 13.5625H18.95C18.9072 13.553 18.8632 13.5481 18.819 13.5479H18.7833H18.7857C18.614 13.5478 18.4452 13.587 18.2961 13.6615C18.1471 13.7361 18.0228 13.8434 17.9357 13.9729L17.9333 13.9771L17.6548 14.3937C13.9452 19.9062 10.7286 24.675 9.2738 32.7166C9.24975 32.8546 9.26379 32.9957 9.31473 33.128C9.36568 33.2602 9.45206 33.3799 9.56666 33.4771C9.69093 33.5674 9.83649 33.6325 9.99291 33.6678C10.1493 33.7031 10.3127 33.7077 10.4714 33.6812H10.4643V33.6875ZM9.25237 42.4625C9.45324 42.4593 9.64602 42.3927 9.79523 42.275L10.3667 41.775C11.4483 40.8348 12.9111 40.3072 14.4357 40.3072C15.9603 40.3072 17.4231 40.8348 18.5048 41.775L19.0762 42.275C19.2136 42.3944 19.3992 42.4617 19.5928 42.4625H19.6167C19.8175 42.4593 20.0103 42.3927 20.1595 42.275L20.7667 41.7437C21.8443 40.8133 23.2979 40.2922 24.8119 40.2937C26.3976 40.2937 27.8309 40.8541 28.8738 41.7583L29.4309 42.2458C29.5763 42.3694 29.7689 42.4414 29.9714 42.4479H29.9738C30.1747 42.4447 30.3675 42.3781 30.5167 42.2604L31.0738 41.7729C32.1555 40.8327 33.6182 40.3051 35.1428 40.3051C36.6675 40.3051 38.1302 40.8327 39.2119 41.7729L39.7833 42.2729C39.9167 42.3875 40.0976 42.4604 40.3 42.4604H40.3262H40.3238C40.5247 42.4572 40.7174 42.3906 40.8667 42.2729L41.4381 41.7729C41.9884 41.2919 42.6456 40.9146 43.369 40.6646L43.4071 40.6521C43.4571 40.5646 43.5214 40.4958 43.5714 40.4083L49.4952 29.8396C49.5824 29.6792 49.6176 29.5009 49.597 29.3242C49.5765 29.1476 49.5009 28.9792 49.3786 28.8375L49.3809 28.8396C49.2539 28.6984 49.0841 28.5913 48.8909 28.5305C48.6976 28.4697 48.4888 28.4577 48.2881 28.4958L48.2952 28.4937L6.23332 36.4771C6.04465 36.5139 5.86736 36.5862 5.71371 36.6888C5.56007 36.7915 5.43371 36.9221 5.34339 37.0716C5.25306 37.2212 5.20091 37.3861 5.19054 37.555C5.18017 37.7239 5.21183 37.8928 5.28332 38.05L5.28094 38.0416L6.62618 41.0291C7.44999 41.3312 8.15237 41.75 8.74285 42.2646C8.79595 42.3261 8.86467 42.376 8.94359 42.4104C9.02251 42.4447 9.10947 42.4626 9.19761 42.4625L9.25713 42.4604H9.25475L9.25237 42.4625ZM48.6214 46.8562C47.8119 46.1541 46.7 45.7229 45.4714 45.7229C44.2428 45.7229 43.1286 46.1562 42.3214 46.8583L41.75 47.3583C41.3654 47.6908 40.8466 47.8772 40.3059 47.8772C39.7653 47.8772 39.2465 47.6908 38.8619 47.3583L38.2905 46.8583C37.4809 46.1562 36.369 45.725 35.1405 45.725C33.9119 45.725 32.7976 46.1583 31.9905 46.8604L31.4333 47.3479C31.0496 47.6793 30.532 47.865 29.9928 47.8646H29.9786C29.7111 47.8648 29.4464 47.8179 29.2001 47.7266C28.9538 47.6353 28.7311 47.5016 28.5452 47.3333L27.9857 46.8437C27.1451 46.1151 26.0094 45.7069 24.8262 45.7083C23.6024 45.7083 22.4952 46.1354 21.6833 46.8291L21.0762 47.3604C20.6916 47.6928 20.1727 47.8793 19.6321 47.8793C19.0915 47.8793 18.5727 47.6928 18.1881 47.3604L17.6167 46.8604C16.8071 46.1583 15.6952 45.725 14.4643 45.725C13.2333 45.725 12.1214 46.1583 11.3119 46.8604L10.7405 47.3604C10.3559 47.6928 9.83703 47.8793 9.29642 47.8793C8.7558 47.8793 8.23697 47.6928 7.85237 47.3604C6.89523 46.5354 5.57856 46.025 4.12618 46.025C2.6738 46.025 1.35951 46.5354 0.39999 47.3604C0.286247 47.4583 0.195913 47.575 0.134251 47.7038C0.0725889 47.8326 0.0408325 47.9708 0.0408325 48.1104C0.0408325 48.25 0.0725889 48.3882 0.134251 48.517C0.195913 48.6457 0.286247 48.7625 0.39999 48.8604C0.625548 49.0596 0.931935 49.1726 1.25237 49.175H1.26189C1.57745 49.1758 1.88052 49.0672 2.10475 48.8729C2.36938 48.6401 2.68398 48.4553 3.03048 48.3293C3.37698 48.2032 3.74854 48.1383 4.1238 48.1383C4.49906 48.1383 4.87062 48.2032 5.21712 48.3293C5.56362 48.4553 5.87822 48.6401 6.14285 48.8729C6.95237 49.5729 8.06428 50.0062 9.29285 50.0062C10.5214 50.0062 11.6357 49.5729 12.4428 48.8729L13.0143 48.3729C13.3989 48.0405 13.9177 47.854 14.4583 47.854C14.9989 47.854 15.5178 48.0405 15.9024 48.3729L16.4738 48.8729C17.2738 49.5729 18.3786 50.0062 19.6 50.0062H19.6262H19.6238H19.6309C20.85 50.0062 21.9548 49.5791 22.7595 48.8854L23.3833 48.3541C23.7679 48.0217 24.2868 47.8353 24.8274 47.8353C25.368 47.8353 25.8868 48.0217 26.2714 48.3541L26.8286 48.8416C27.6333 49.55 28.7476 49.9875 29.9786 49.9896H30.0048C31.2262 49.9896 32.3309 49.5562 33.1286 48.8562L33.6857 48.3687C34.0703 48.0363 34.5891 47.8499 35.1298 47.8499C35.6704 47.8499 36.1892 48.0363 36.5738 48.3687L37.1452 48.8687C37.9548 49.5687 39.0667 50.0021 40.2952 50.0021C41.5238 50.0021 42.6381 49.5687 43.4452 48.8687L44.0167 48.3687C44.4012 48.0363 44.9201 47.8499 45.4607 47.8499C46.0013 47.8499 46.5202 48.0363 46.9048 48.3687C47.1214 48.5562 47.419 48.6708 47.75 48.6708H47.7762C47.9329 48.6708 48.0881 48.6429 48.2321 48.5888C48.3762 48.5347 48.5062 48.4556 48.6143 48.3562C48.7293 48.2592 48.8208 48.143 48.8834 48.0144C48.946 47.8858 48.9783 47.7475 48.9785 47.6077C48.9788 47.4679 48.9468 47.3296 48.8847 47.2008C48.8225 47.0721 48.7313 46.9556 48.6167 46.8583L48.6214 46.8562Z" fill="white"/>
<path d="M4.06667 43.8396H4.07619C4.86191 43.8396 5.57143 44.1188 6.08572 44.5708C6.89524 45.2729 8.00715 45.7042 9.23572 45.7042C10.4643 45.7042 11.5786 45.2708 12.3857 44.5688L12.9571 44.0688C13.3417 43.7363 13.8606 43.5499 14.4012 43.5499C14.9418 43.5499 15.4606 43.7363 15.8452 44.0688L16.4167 44.5688C17.2167 45.2708 18.3214 45.7042 19.5452 45.7042H19.569H19.5667H19.5738C20.7929 45.7042 21.8976 45.2771 22.7024 44.5833L23.3262 44.0521C23.7137 43.7171 24.2373 43.5305 24.782 43.5333C25.3267 43.536 25.8479 43.7279 26.231 44.0667L26.7881 44.5542C27.5929 45.2604 28.7071 45.7 29.9381 45.7021H29.9619C31.1833 45.7021 32.2881 45.2688 33.0881 44.5667L33.6452 44.0792C34.0298 43.7467 34.5487 43.5603 35.0893 43.5603C35.6299 43.5603 36.1487 43.7467 36.5333 44.0792L37.1048 44.5792C37.9143 45.2813 39.0262 45.7125 40.2548 45.7125C41.4833 45.7125 42.5976 45.2792 43.4048 44.5771L43.9762 44.0771C44.3608 43.7447 44.8796 43.5582 45.4202 43.5582C45.9609 43.5582 46.4797 43.7447 46.8643 44.0771C47.081 44.2646 47.3786 44.3792 47.7071 44.3792H47.7333C47.8901 44.3792 48.0452 44.3513 48.1893 44.2972C48.3334 44.2431 48.4634 44.164 48.5714 44.0646C48.6852 43.9667 48.7755 43.8499 48.8372 43.7212C48.8988 43.5924 48.9306 43.4542 48.9306 43.3146C48.9306 43.175 48.8988 43.0368 48.8372 42.908C48.7755 42.7792 48.6852 42.6625 48.5714 42.5646C47.7619 41.8625 46.65 41.4313 45.4214 41.4313C44.1929 41.4313 43.0786 41.8646 42.2714 42.5667L41.7 43.0667C41.3154 43.3991 40.7966 43.5855 40.256 43.5855C39.7153 43.5855 39.1965 43.3991 38.8119 43.0667L38.2405 42.5667C37.431 41.8646 36.319 41.4333 35.0905 41.4333C33.8619 41.4333 32.7476 41.8667 31.9405 42.5688L31.3833 43.0563C30.9996 43.3877 30.482 43.5734 29.9429 43.5729H29.9286C29.6611 43.5732 29.3964 43.5263 29.1501 43.435C28.9038 43.3437 28.6811 43.2099 28.4952 43.0417L27.9357 42.5521C27.0952 41.8249 25.9605 41.4176 24.7786 41.4188C23.5548 41.4188 22.4452 41.8458 21.6357 42.5396L21.0286 43.0708C20.644 43.4033 20.1251 43.5897 19.5845 43.5897C19.0439 43.5897 18.5251 43.4033 18.1405 43.0708L17.5691 42.5708C16.7595 41.8688 15.6476 41.4354 14.4167 41.4354C13.1857 41.4354 12.0738 41.8688 11.2643 42.5708L10.6929 43.0708C10.3083 43.4033 9.78943 43.5897 9.24881 43.5897C8.7082 43.5897 8.18936 43.4033 7.80477 43.0708C6.84762 42.2458 5.53096 41.7354 4.07857 41.7354C2.62619 41.7354 1.31191 42.2458 0.352384 43.0708C0.237167 43.168 0.145522 43.2845 0.082926 43.4134C0.0203298 43.5422 -0.0119324 43.6808 -0.0119324 43.8208C-0.0119324 43.9609 0.0203298 44.0994 0.082926 44.2283C0.145522 44.3572 0.237167 44.4737 0.352384 44.5708C0.577552 44.7708 0.883988 44.8846 1.20477 44.8875H1.21429C1.52985 44.8883 1.83292 44.7797 2.05715 44.5854C2.55953 44.125 3.26429 43.8375 4.05 43.8375H4.06191L4.06667 43.8396Z" fill="white"/>
</g>
<defs>
<clipPath id="clip0_7_130">
<rect width="50" height="50" fill="white"/>
</clipPath>
</defs>
</svg>
