<svg width="50" height="50" viewBox="0 0 50 50" fill="none" xmlns="http://www.w3.org/2000/svg">
<path d="M43.75 42.1875C43.75 42.6019 43.5854 42.9993 43.2924 43.2923C42.9993 43.5854 42.6019 43.75 42.1875 43.75H14.0625C13.6481 43.75 13.2507 43.5854 12.9576 43.2923C12.6646 42.9993 12.5 42.6019 12.5 42.1875C12.5 41.7731 12.6646 41.3756 12.9576 41.0826C13.2507 40.7896 13.6481 40.625 14.0625 40.625H42.1875C42.6019 40.625 42.9993 40.7896 43.2924 41.0826C43.5854 41.3756 43.75 41.7731 43.75 42.1875ZM40.625 19.5312H30.0391L21.6602 10.4101C21.5889 10.3304 21.5016 10.2666 21.404 10.2229C21.3064 10.1791 21.2007 10.1564 21.0937 10.1562H17.793C17.4213 10.1511 17.0541 10.2375 16.7237 10.4078C16.3933 10.5781 16.1099 10.8271 15.8984 11.1328C15.6785 11.4322 15.5336 11.7801 15.4758 12.1471C15.4181 12.5141 15.4491 12.8896 15.5664 13.2422L17.6758 19.5312H12.8711L9.19921 15.1172C9.12374 15.0309 9.03063 14.9619 8.92617 14.9147C8.82172 14.8675 8.70836 14.8433 8.59375 14.8437H5.23437C4.86748 14.8422 4.50528 14.9261 4.17645 15.0888C3.84762 15.2516 3.56118 15.4886 3.33984 15.7812C3.12287 16.0745 2.97799 16.4147 2.91691 16.7744C2.85584 17.1341 2.88028 17.5031 2.98828 17.8515L5.72265 27.0117C6.15017 28.4656 7.03845 29.7412 8.25374 30.6465C9.46902 31.5518 10.9455 32.0377 12.4609 32.0312H46.875C47.0822 32.0312 47.2809 31.9489 47.4274 31.8024C47.5739 31.6559 47.6562 31.4572 47.6562 31.25V26.5625C47.6562 24.6977 46.9155 22.9092 45.5968 21.5906C44.2782 20.272 42.4898 19.5312 40.625 19.5312Z" fill="white"/>
</svg>
