<svg width="153" height="46" viewBox="0 0 153 46" fill="none" xmlns="http://www.w3.org/2000/svg">
<path d="M0.90767 36V2.54545H7.98082V16.3487H22.3395V2.54545H29.3963V36H22.3395V22.1804H7.98082V36H0.90767ZM35.0973 36V10.9091H42.0561V36H35.0973ZM38.593 7.67472C37.5585 7.67472 36.6709 7.33167 35.9304 6.64559C35.2008 5.94863 34.8359 5.11553 34.8359 4.14631C34.8359 3.18797 35.2008 2.36577 35.9304 1.67969C36.6709 0.982717 37.5585 0.634231 38.593 0.634231C39.6276 0.634231 40.5097 0.982717 41.2393 1.67969C41.9799 2.36577 42.3501 3.18797 42.3501 4.14631C42.3501 5.11553 41.9799 5.94863 41.2393 6.64559C40.5097 7.33167 39.6276 7.67472 38.593 7.67472ZM54.5893 2.54545V36H47.6305V2.54545H54.5893ZM67.1225 2.54545V36H60.1637V2.54545H67.1225ZM71.5534 8.37713V2.54545H99.0293V8.37713H88.7871V36H81.7956V8.37713H71.5534ZM111.121 36.4901C108.584 36.4901 106.39 35.951 104.538 34.8729C102.698 33.7839 101.277 32.2701 100.275 30.3317C99.273 28.3823 98.772 26.1226 98.772 23.5526C98.772 20.9607 99.273 18.6955 100.275 16.7571C101.277 14.8078 102.698 13.294 104.538 12.2159C106.39 11.1269 108.584 10.5824 111.121 10.5824C113.659 10.5824 115.848 11.1269 117.688 12.2159C119.54 13.294 120.966 14.8078 121.968 16.7571C122.97 18.6955 123.471 20.9607 123.471 23.5526C123.471 26.1226 122.97 28.3823 121.968 30.3317C120.966 32.2701 119.54 33.7839 117.688 34.8729C115.848 35.951 113.659 36.4901 111.121 36.4901ZM111.154 31.0994C112.308 31.0994 113.272 30.7727 114.045 30.1193C114.819 29.455 115.401 28.5511 115.793 27.4077C116.196 26.2642 116.398 24.9628 116.398 23.5036C116.398 22.0443 116.196 20.7429 115.793 19.5994C115.401 18.456 114.819 17.5521 114.045 16.8878C113.272 16.2235 112.308 15.8913 111.154 15.8913C109.989 15.8913 109.009 16.2235 108.214 16.8878C107.43 17.5521 106.836 18.456 106.433 19.5994C106.041 20.7429 105.845 22.0443 105.845 23.5036C105.845 24.9628 106.041 26.2642 106.433 27.4077C106.836 28.5511 107.43 29.455 108.214 30.1193C109.009 30.7727 109.989 31.0994 111.154 31.0994ZM127.996 45.4091V10.9091H134.857V15.1236H135.167C135.472 14.4484 135.913 13.7623 136.49 13.0653C137.078 12.3575 137.84 11.7694 138.777 11.3011C139.724 10.822 140.901 10.5824 142.305 10.5824C144.135 10.5824 145.823 11.0616 147.369 12.0199C148.916 12.9673 150.152 14.3994 151.077 16.3161C152.003 18.2218 152.466 20.6122 152.466 23.4872C152.466 26.286 152.014 28.6491 151.11 30.5767C150.217 32.4934 148.997 33.9472 147.451 34.9382C145.915 35.9183 144.195 36.4084 142.289 36.4084C140.939 36.4084 139.79 36.1851 138.842 35.7386C137.906 35.2921 137.138 34.7313 136.539 34.0561C135.94 33.37 135.483 32.6785 135.167 31.9815H134.955V45.4091H127.996ZM134.808 23.4545C134.808 24.9465 135.014 26.2479 135.428 27.3587C135.842 28.4695 136.441 29.3352 137.225 29.956C138.009 30.5658 138.962 30.8707 140.084 30.8707C141.216 30.8707 142.175 30.5604 142.959 29.9396C143.743 29.308 144.336 28.4368 144.739 27.326C145.153 26.2043 145.36 24.9138 145.36 23.4545C145.36 22.0062 145.159 20.732 144.756 19.6321C144.353 18.5322 143.759 17.6719 142.975 17.0511C142.191 16.4304 141.227 16.12 140.084 16.12C138.951 16.12 137.993 16.4195 137.209 17.0185C136.436 17.6174 135.842 18.4669 135.428 19.5668C135.014 20.6667 134.808 21.9626 134.808 23.4545Z" fill="white"/>
</svg>
